<?xml version="1.0" encoding="UTF-8" standalone="no"?>
<!-- Created with Inkscape (http://www.inkscape.org/) -->

<svg
   xmlns:dc="http://purl.org/dc/elements/1.1/"
   xmlns:cc="http://creativecommons.org/ns#"
   xmlns:rdf="http://www.w3.org/1999/02/22-rdf-syntax-ns#"
   xmlns:svg="http://www.w3.org/2000/svg"
   xmlns="http://www.w3.org/2000/svg"
   xmlns:xlink="http://www.w3.org/1999/xlink"
   xmlns:sodipodi="http://sodipodi.sourceforge.net/DTD/sodipodi-0.dtd"
   xmlns:inkscape="http://www.inkscape.org/namespaces/inkscape"
   width="48px"
   height="48px"
   id="svg3274"
   version="1.1"
   inkscape:version="0.48.2 r9819"
   sodipodi:docname="Documento nuevo 2">
  <defs
     id="defs3276">
    <radialGradient
       inkscape:collect="always"
       xlink:href="#linearGradient3235"
       id="radialGradient3329"
       gradientUnits="userSpaceOnUse"
       gradientTransform="matrix(1.1513897,3.4769384e-6,-3.2693719e-6,1.082654,-23.20538,-31.835302)"
       cx="153.29065"
       cy="385.15643"
       fx="153.29065"
       fy="385.15643"
       r="7.1973367" />
    <linearGradient
       id="linearGradient3235">
      <stop
         id="stop3237"
         offset="0"
         style="stop-color:#000000;stop-opacity:1;" />
      <stop
         style="stop-color:#000000;stop-opacity:1;"
         offset="0.64130437"
         id="stop3241" />
      <stop
         id="stop3239"
         offset="1"
         style="stop-color:#ffffff;stop-opacity:0;" />
    </linearGradient>
    <radialGradient
       inkscape:collect="always"
       xlink:href="#linearGradient3205"
       id="radialGradient3331"
       gradientUnits="userSpaceOnUse"
       gradientTransform="matrix(1.2820532,1.5765511e-6,-1.9353784e-6,1.573852,-43.23538,-220.01382)"
       cx="153.29065"
       cy="380.87778"
       fx="153.29065"
       fy="380.87778"
       r="7.5973368" />
    <linearGradient
       id="linearGradient3205">
      <stop
         style="stop-color:#fffcfc;stop-opacity:1;"
         offset="0"
         id="stop3207" />
      <stop
         id="stop3247"
         offset="0.5"
         style="stop-color:#ebe9e9;stop-opacity:1;" />
      <stop
         id="stop3245"
         offset="1"
         style="stop-color:#c8c5c5;stop-opacity:1;" />
    </linearGradient>
    <linearGradient
       inkscape:collect="always"
       xlink:href="#linearGradient3213"
       id="linearGradient3333"
       gradientUnits="userSpaceOnUse"
       x1="153.29065"
       y1="425.78394"
       x2="153.29065"
       y2="376.77142" />
    <linearGradient
       id="linearGradient3213">
      <stop
         style="stop-color:#838583;stop-opacity:1;"
         offset="0"
         id="stop3215" />
      <stop
         style="stop-color:#ffffff;stop-opacity:1;"
         offset="1"
         id="stop3217" />
    </linearGradient>
    <linearGradient
       y2="376.77142"
       x2="153.29065"
       y1="425.78394"
       x1="153.29065"
       gradientUnits="userSpaceOnUse"
       id="linearGradient3272"
       xlink:href="#linearGradient3213"
       inkscape:collect="always" />
  </defs>
  <sodipodi:namedview
     id="base"
     pagecolor="#ffffff"
     bordercolor="#666666"
     borderopacity="1.0"
     inkscape:pageopacity="0.0"
     inkscape:pageshadow="2"
     inkscape:zoom="7"
     inkscape:cx="24"
     inkscape:cy="24"
     inkscape:current-layer="layer1"
     showgrid="true"
     inkscape:grid-bbox="true"
     inkscape:document-units="px"
     inkscape:window-width="1315"
     inkscape:window-height="744"
     inkscape:window-x="0"
     inkscape:window-y="24"
     inkscape:window-maximized="1" />
  <metadata
     id="metadata3279">
    <rdf:RDF>
      <cc:Work
         rdf:about="">
        <dc:format>image/svg+xml</dc:format>
        <dc:type
           rdf:resource="http://purl.org/dc/dcmitype/StillImage" />
        <dc:title></dc:title>
      </cc:Work>
    </rdf:RDF>
  </metadata>
  <g
     id="layer1"
     inkscape:label="Layer 1"
     inkscape:groupmode="layer">
    <g
       id="active-center"
       transform="matrix(2.2741448,0,0,2.2531743,-459.38978,-932.05779)"
       inkscape:label="#g3516">
      <path
         transform="matrix(1.0904346,0,0,1.1490402,45.531034,-18.307741)"
         d="m 160.48799,385.15643 c 0,3.83551 -3.22236,6.9448 -7.19734,6.9448 -3.97498,0 -7.19734,-3.10929 -7.19734,-6.9448 0,-3.8355 3.22236,-6.9448 7.19734,-6.9448 3.97498,0 7.19734,3.1093 7.19734,6.9448 z"
         sodipodi:ry="6.9447989"
         sodipodi:rx="7.1973367"
         sodipodi:cy="385.15643"
         sodipodi:cx="153.29065"
         id="path3317"
         style="fill:url(#radialGradient3329);fill-opacity:1;fill-rule:evenodd;stroke:none"
         sodipodi:type="arc" />
      <path
         transform="matrix(0.980715,0,0,1.0163773,62.422892,32.502545)"
         d="m 160.48799,385.15643 c 0,3.83551 -3.22236,6.9448 -7.19734,6.9448 -3.97498,0 -7.19734,-3.10929 -7.19734,-6.9448 0,-3.8355 3.22236,-6.9448 7.19734,-6.9448 3.97498,0 7.19734,3.1093 7.19734,6.9448 z"
         sodipodi:ry="6.9447989"
         sodipodi:rx="7.1973367"
         sodipodi:cy="385.15643"
         sodipodi:cx="153.29065"
         id="path3319"
         style="fill:url(#radialGradient3331);fill-opacity:1;fill-rule:evenodd;stroke:none"
         sodipodi:type="arc" />
      <path
         inkscape:connector-curvature="0"
         sodipodi:nodetypes="ccccccccccccc"
         id="path3337"
         d="m 211.99985,424.47445 -2.69308,2.76214 0.86316,0.96675 2.69308,-2.90025 2.57224,2.81392 0.98401,-0.94948 -2.69308,-2.79666 2.55498,-2.41687 -0.82864,-1.03579 -2.58951,2.5895 -2.69308,-2.55498 -0.86316,1.00128 2.69308,2.52044 z"
         style="fill:#f4f4f4;fill-opacity:1;fill-rule:evenodd;stroke:none" />
      <path
         inkscape:connector-curvature="0"
         sodipodi:nodetypes="ccccccccccccc"
         id="path3339"
         d="m 211.91896,423.24824 -2.69308,2.76214 0.86316,0.96675 2.69308,-2.90025 2.57224,2.81392 0.98401,-0.94948 -2.69308,-2.79666 2.55498,-2.41687 -0.82864,-1.03579 -2.58951,2.5895 -2.69308,-2.55498 -0.86316,1.00128 2.69308,2.52044 z"
         style="fill:#c2c2c2;fill-opacity:1;fill-rule:evenodd;stroke:none" />
      <path
         inkscape:connector-curvature="0"
         sodipodi:nodetypes="ccccccccccccc"
         id="path3335"
         d="m 211.96432,423.82934 -2.69308,2.76214 0.86316,0.96675 2.69308,-2.90025 2.57224,2.81392 0.98401,-0.94948 -2.69308,-2.79666 2.55498,-2.41687 -0.82864,-1.03579 -2.58951,2.5895 -2.69308,-2.55498 -0.86316,1.00128 2.69308,2.52044 z"
         style="fill:#1f1f1f;fill-opacity:0.75294118;fill-rule:evenodd;stroke:none" />
      <path
         transform="matrix(0.915052,0,0,0.9483266,72.448742,58.717617)"
         d="m 160.48799,385.15643 c 0,3.83551 -3.22236,6.9448 -7.19734,6.9448 -3.97498,0 -7.19734,-3.10929 -7.19734,-6.9448 0,-3.8355 3.22236,-6.9448 7.19734,-6.9448 3.97498,0 7.19734,3.1093 7.19734,6.9448 z"
         sodipodi:ry="6.9447989"
         sodipodi:rx="7.1973367"
         sodipodi:cy="385.15643"
         sodipodi:cx="153.29065"
         id="path3321"
         style="fill:none;stroke:url(#linearGradient3272);stroke-width:0.88151509;stroke-linecap:butt;stroke-linejoin:miter;stroke-miterlimit:4.80000019;stroke-opacity:1;stroke-dasharray:none"
         sodipodi:type="arc" />
    </g>
  </g>
</svg>
